<svg version="1.1" viewBox="0 0 640 400" xmlns="http://www.w3.org/2000/svg" xmlns:xlink="http://www.w3.org/1999/xlink" xmlns:svgjs="http://svgjs.dev/svgjs" matcher="0.45591091166441156"><g viewBox="0 0 640 400" matcher="0.45591091166441156"><g matcher="0.45591091166441156"><g matcher="0.45591091166441156"><g matcher="0.45591091166441156"><svg viewBox="0 0 640 400"  preserveAspectRatio="xMidYMid meet" height="400" width="640" xmlns="http://www.w3.org/2000/svg" xmlns:xlink="http://www.w3.org/1999/xlink"><rect width="640" height="400" x="0" y="0" opacity="1" fill="transparent" data-fill-palette-color="background" id="background"></rect><g id="tight-bounds" transform="matrix(1,0,0,1,122.24000000000001,76.4)"><svg viewBox="0 0 395.52 247.2" height="247.2" width="395.52"><g><svg></svg></g><g><svg viewBox="0 0 395.52 247.2" height="247.2" width="395.52"><mask id="95a515ca-6ace-4d52-82f7-d653c2f09947"><rect width="395.52" height="247.2" fill="white"></rect><g transform="matrix(1,0,0,1,2.842170943040401e-14,38.23834364976331)" id="clone"><svg viewBox="0 0 395.5199999999999 170.72331270047337" height="170.72331270047337" width="395.5199999999999"><g><svg viewBox="0 0 716.3856624000969 309.22262706327746" height="170.72331270047337" width="395.5199999999999"><g transform="matrix(1,0,0,1,320.86566240009677,98.67379054624122)"><svg viewBox="0 0 395.52000000000004 111.87504597079501" height="111.87504597079501" width="395.52000000000004"><g id="SvgjsG1343"><svg viewBox="0 0 395.52000000000004 111.87504597079501" height="111.87504597079501" width="395.52000000000004" id="SvgjsSvg1342"><g><svg viewBox="0 0 395.52000000000004 111.87504597079501" height="111.87504597079501" width="395.52000000000004"><g transform="matrix(1,0,0,1,0,0)"><svg width="395.52000000000004" viewBox="-4.650000095367432 -39.5 185.87998962402344 53.29999923706055" height="111.87504597079501" data-palette-color="#273ed4"><path d="M10.1 0.6L10.1 0.6Q8.2 0.6 6.68 0.18 5.15-0.25 4.25-1.65 3.35-3.05 3.35-5.9L3.35-5.9 3.35-23.45Q3.35-26.35 4.25-27.73 5.15-29.1 6.73-29.53 8.3-29.95 10.2-29.95L10.2-29.95Q12.15-29.95 13.68-29.5 15.2-29.05 16.1-27.68 17-26.3 17-23.45L17-23.45 17-19.05 16.2-19.05 16.2-23.65Q16.2-26.05 15.43-27.23 14.65-28.4 13.3-28.78 11.95-29.15 10.15-29.15L10.15-29.15Q8.3-29.15 6.95-28.73 5.6-28.3 4.88-27.08 4.15-25.85 4.15-23.35L4.15-23.35 4.15-5.8Q4.15-3.4 4.98-2.2 5.8-1 7.18-0.6 8.55-0.2 10.15-0.2L10.15-0.2Q11.9-0.2 13.28-0.6 14.65-1 15.43-2.2 16.2-3.4 16.2-5.8L16.2-5.8 16.2-9.45 17-9.45 17-5.9Q17-3 16.1-1.63 15.2-0.25 13.65 0.18 12.1 0.6 10.1 0.6ZM24.4 0L23.6 0 23.6-31.5 24.4-31.5 24.4-22.25Q24.95-23.4 26.22-24.28 27.5-25.15 29.85-25.15L29.85-25.15Q31.95-25.15 33.17-24.58 34.4-24 34.95-23.03 35.5-22.05 35.65-20.9 35.8-19.75 35.8-18.6L35.8-18.6 35.8 0 35 0 35-18.15Q35-19.65 34.75-21.08 34.5-22.5 33.42-23.43 32.35-24.35 29.85-24.35L29.85-24.35Q27.1-24.35 25.85-22.98 24.6-21.6 24.4-19.45L24.4-19.45 24.4 0ZM46.85 0.2L46.85 0.2Q45.7 0.2 44.47-0.2 43.25-0.6 42.4-1.83 41.55-3.05 41.55-5.6L41.55-5.6 41.55-7.3Q41.55-8.9 42.27-10.1 43-11.3 44.02-12.13 45.05-12.95 46.02-13.48 47-14 47.45-14.25L47.45-14.25Q49.45-15.35 50.57-16.18 51.7-17 52.2-17.88 52.7-18.75 52.7-20L52.7-20 52.7-20.7Q52.7-22.4 51.97-23.15 51.25-23.9 50.15-24.1 49.05-24.3 47.9-24.3L47.9-24.3Q45.7-24.3 44.62-23.55 43.55-22.8 43.22-21.55 42.9-20.3 42.9-18.75L42.9-18.75 42.9-16.7 42.1-16.7 42.1-18.85Q42.1-21.75 43.25-23.43 44.4-25.1 47.9-25.1L47.9-25.1Q50.6-25.1 51.77-24.4 52.95-23.7 53.22-22.58 53.5-21.45 53.5-20.1L53.5-20.1 53.5 0 52.75 0 52.75-3.65Q52.15-1.9 50.62-0.85 49.1 0.2 46.85 0.2ZM47-0.6L47-0.6Q49.2-0.6 50.42-1.55 51.65-2.5 52.17-4.15 52.7-5.8 52.7-7.85L52.7-7.85 52.7-17.05Q51.9-15.95 50.52-15.13 49.15-14.3 47.7-13.45L47.7-13.45Q46.45-12.75 45.22-11.98 44-11.2 43.17-10 42.35-8.8 42.35-6.9L42.35-6.9 42.35-5.6Q42.35-3.25 43.1-2.2 43.85-1.15 44.95-0.88 46.05-0.6 47-0.6ZM63.59 0L63.59 0Q61.64 0 60.79-1.18 59.94-2.35 59.94-4.65L59.94-4.65 59.94-23.95 58.04-23.95 58.04-24.65 59.94-24.75 60.09-29.6 60.74-29.6 60.74-24.75 66.54-24.75 66.54-23.95 60.74-23.95 60.74-4.4Q60.74-3 61.29-1.88 61.84-0.75 63.54-0.75L63.54-0.75Q64.24-0.75 64.94-0.83 65.64-0.9 66.54-1L66.54-1 66.54-0.2Q66.19-0.15 65.37-0.08 64.54 0 63.59 0ZM83.24 0.45L83.24 0.45Q81.34 0.45 79.89-0.33 78.44-1.1 77.66-3 76.89-4.9 76.89-8.15L76.89-8.15 76.89-8.75 77.69-8.75 77.69-8.15Q77.69-5.15 78.41-3.45 79.14-1.75 80.39-1.05 81.64-0.35 83.24-0.35L83.24-0.35Q85.89-0.35 87.64-1.88 89.39-3.4 89.39-7.3L89.39-7.3Q89.39-9.9 88.51-11.28 87.64-12.65 86.16-13.4 84.69-14.15 82.94-14.8L82.94-14.8Q81.14-15.5 79.81-16.38 78.49-17.25 77.76-18.65 77.04-20.05 77.04-22.4L77.04-22.4Q77.04-25.75 78.51-27.75 79.99-29.75 83.44-29.75L83.44-29.75Q86.44-29.75 88.19-28.1 89.94-26.45 89.94-23.45L89.94-23.45 89.94-21.45 89.14-21.45 89.14-23.25Q89.14-25.95 87.64-27.45 86.14-28.95 83.44-28.95L83.44-28.95Q80.34-28.95 79.09-27.08 77.84-25.2 77.84-22.4L77.84-22.4Q77.84-20.1 78.61-18.8 79.39-17.5 80.66-16.8 81.94-16.1 83.39-15.5L83.39-15.5Q85.79-14.55 87.29-13.65 88.79-12.75 89.49-11.33 90.19-9.9 90.19-7.3L90.19-7.3Q90.19-4.45 89.26-2.75 88.34-1.05 86.76-0.3 85.19 0.45 83.24 0.45ZM96.39 5.8L95.59 5.8 95.59-24.75 96.29-24.75 96.39-22.25Q96.64-23.25 97.81-24.2 98.99-25.15 101.59-25.15L101.59-25.15Q103.69-25.15 104.91-24.58 106.14-24 106.69-23.03 107.24-22.05 107.39-20.9 107.54-19.75 107.54-18.6L107.54-18.6 107.54-6.2Q107.54-4.65 107.24-3.15 106.94-1.65 105.69-0.65 104.44 0.35 101.59 0.35L101.59 0.35Q99.09 0.35 97.89-0.38 96.69-1.1 96.39-1.9L96.39-1.9 96.39 5.8ZM101.59-0.45L101.59-0.45Q103.54-0.45 104.59-1 105.64-1.55 106.09-2.43 106.54-3.3 106.64-4.33 106.74-5.35 106.74-6.35L106.74-6.35 106.74-18.45Q106.74-19.95 106.51-21.3 106.29-22.65 105.24-23.5 104.19-24.35 101.59-24.35L101.59-24.35Q99.19-24.35 98.09-23.48 96.99-22.6 96.69-21.2 96.39-19.8 96.39-18.15L96.39-18.15 96.39-6.35Q96.39-5.35 96.49-4.33 96.59-3.3 97.04-2.43 97.49-1.55 98.56-1 99.64-0.45 101.59-0.45ZM114.68 0L113.88 0 113.88-31.5 114.68-31.5 114.68-22.25Q115.23-23.4 116.51-24.28 117.78-25.15 120.13-25.15L120.13-25.15Q122.23-25.15 123.46-24.58 124.68-24 125.23-23.03 125.78-22.05 125.93-20.9 126.08-19.75 126.08-18.6L126.08-18.6 126.08 0 125.28 0 125.28-18.15Q125.28-19.65 125.03-21.08 124.78-22.5 123.71-23.43 122.63-24.35 120.13-24.35L120.13-24.35Q117.38-24.35 116.13-22.98 114.88-21.6 114.68-19.45L114.68-19.45 114.68 0ZM138.08 0.35L138.08 0.35Q135.93 0.35 134.71-0.23 133.48-0.8 132.93-1.75 132.38-2.7 132.23-3.88 132.08-5.05 132.08-6.2L132.08-6.2 132.08-18.6Q132.08-20.15 132.43-21.65 132.78-23.15 134.06-24.15 135.33-25.15 138.08-25.15L138.08-25.15Q140.88-25.15 142.13-24.2 143.38-23.25 143.71-21.75 144.03-20.25 144.03-18.6L144.03-18.6 144.03-13.15 132.88-13.15 132.88-6.35Q132.88-4.9 133.16-3.53 133.43-2.15 134.53-1.3 135.63-0.45 138.08-0.45L138.08-0.45Q140.53-0.45 141.61-1.3 142.68-2.15 142.96-3.5 143.23-4.85 143.23-6.35L143.23-6.35 143.23-8.35 144.03-8.35 144.03-6.2Q144.03-4.65 143.73-3.15 143.43-1.65 142.18-0.65 140.93 0.35 138.08 0.35ZM132.88-18.15L132.88-13.95 143.23-13.95 143.23-18.15Q143.23-19.9 142.98-21.3 142.73-22.7 141.66-23.53 140.58-24.35 138.08-24.35L138.08-24.35Q135.88-24.35 134.76-23.58 133.63-22.8 133.26-21.43 132.88-20.05 132.88-18.15L132.88-18.15ZM151.08 0L150.28 0 150.28-24.75 150.98-24.75 151.08-22.25Q151.63-23.4 152.9-24.28 154.18-25.15 156.53-25.15L156.53-25.15Q157.58-25.15 158.38-25L158.38-25 158.38-24.2Q157.58-24.35 156.53-24.35L156.53-24.35Q153.78-24.35 152.43-22.9 151.08-21.45 151.08-19.45L151.08-19.45 151.08 0ZM167.28 0.35L167.28 0.35Q165.13 0.35 163.9-0.23 162.68-0.8 162.13-1.75 161.58-2.7 161.43-3.88 161.28-5.05 161.28-6.2L161.28-6.2 161.28-18.6Q161.28-20.15 161.63-21.65 161.98-23.15 163.25-24.15 164.53-25.15 167.28-25.15L167.28-25.15Q170.08-25.15 171.33-24.2 172.58-23.25 172.9-21.75 173.23-20.25 173.23-18.6L173.23-18.6 173.23-13.15 162.08-13.15 162.08-6.35Q162.08-4.9 162.35-3.53 162.63-2.15 163.73-1.3 164.83-0.45 167.28-0.45L167.28-0.45Q169.73-0.45 170.8-1.3 171.88-2.15 172.15-3.5 172.43-4.85 172.43-6.35L172.43-6.35 172.43-8.35 173.23-8.35 173.23-6.2Q173.23-4.65 172.93-3.15 172.63-1.65 171.38-0.65 170.13 0.35 167.28 0.35ZM162.08-18.15L162.08-13.95 172.43-13.95 172.43-18.15Q172.43-19.9 172.18-21.3 171.93-22.7 170.85-23.53 169.78-24.35 167.28-24.35L167.28-24.35Q165.08-24.35 163.95-23.58 162.83-22.8 162.45-21.43 162.08-20.05 162.08-18.15L162.08-18.15Z" opacity="1" transform="matrix(1,0,0,1,0,0)" fill="black" class="wordmark-text-0" id="SvgjsPath1341" stroke-width="15" stroke="black" stroke-linejoin="round"></path></svg></g></svg></g></svg></g></svg></g><g><svg viewBox="0 0 309.22260347146505 309.22262706327746" height="309.22262706327746" width="309.22260347146505"><g><svg xmlns="http://www.w3.org/2000/svg" xmlns:xlink="http://www.w3.org/1999/xlink" version="1.1" x="0" y="0" viewBox="0 -0.0000057220458984375 100 100.00000762939453" style="enable-background:new 0 0 100 100;" xml:space="preserve" height="309.22262706327746" width="309.22260347146505" class="icon-icon-0" data-fill-palette-color="accent" id="SvgjsSvg1340"><g fill="black" stroke-width="15" stroke="black" stroke-linejoin="round"><path d="M74.988 37.5C74.988 51.307 63.806 62.5 50 62.5 50 55.604 44.396 50 37.5 50H24.988C12.5 50 0 42.969 0 25 0 6.641 12.5 0 24.988 0H50C62.5 0 74.988 7.745 74.988 25z" fill="black" stroke-width="15" stroke="black" stroke-linejoin="round"></path></g><path d="M37.5 37.5" fill="black" stroke-width="15" stroke="black" stroke-linejoin="round"></path><path d="M37.5 37.5" fill="black" stroke-width="15" stroke="black" stroke-linejoin="round"></path><g fill="black" stroke-width="15" stroke="black" stroke-linejoin="round"><g fill="black" stroke-width="15" stroke="black" stroke-linejoin="round"><path d="M81.189 38.165C80.822 55.078 66.992 68.75 50 68.75H43.75V62.5A6.26 6.26 0 0 0 37.5 56.25H25.623A31.3 31.3 0 0 0 24.988 62.5V75C24.988 88.807 36.193 100 50 100 50 93.091 55.604 87.5 62.5 87.5H74.988C87.5 87.5 100 80.469 100 62.5 100 47.211 91.297 40.125 81.189 38.165" fill="black" stroke-width="15" stroke="black" stroke-linejoin="round"></path></g></g></svg></g></svg></g></svg></g></svg></g></mask><g mask="url(#95a515ca-6ace-4d52-82f7-d653c2f09947)"><g><path xmlns="http://www.w3.org/2000/svg" d="M122.305 247.2v0c-10.249 0-19.474-1.133-27.673-3.398-8.253-2.32-14.808-7.256-19.663-14.808-4.855-7.552-7.282-19.015-7.282-34.39v0-142.008c0-15.644 2.428-27.188 7.282-34.633 4.855-7.39 11.544-12.245 20.067-14.565 8.469-2.266 17.829-3.398 28.079-3.398v0c10.519 0 19.905 1.214 28.158 3.641 8.2 2.428 14.727 7.336 19.582 14.727 4.855 7.444 7.282 18.854 7.283 34.228v0 35.603h-6.474v-37.222c0-12.947-2.077-22.603-6.23-28.968-4.208-6.311-9.953-10.492-17.235-12.542-7.282-1.996-15.779-2.994-25.489-2.994v0c-9.98 0-18.611 1.133-25.893 3.399-7.282 2.32-12.866 6.77-16.75 13.351-3.938 6.635-5.907 16.696-5.907 30.182v0 142.008c0 12.947 2.239 22.657 6.716 29.13 4.423 6.473 10.357 10.789 17.802 12.947 7.39 2.158 15.401 3.237 24.032 3.237v0c9.44 0 17.883-1.079 25.327-3.237 7.39-2.158 13.189-6.473 17.397-12.947 4.154-6.473 6.231-16.183 6.23-29.13v0-29.534h6.474v28.725c0 15.644-2.428 27.161-7.283 34.552-4.855 7.444-11.463 12.326-19.824 14.646-8.361 2.266-17.936 3.398-28.726 3.398zM271.596 245.986v0c-10.249 0-19.285-2.104-27.107-6.311-7.822-4.154-13.81-11.355-17.963-21.605-4.208-10.249-6.311-24.14-6.312-41.672v0-4.855h6.474v4.855c0 16.183 1.969 28.86 5.907 38.031 3.884 9.171 9.198 15.644 15.94 19.42 6.743 3.776 14.43 5.664 23.061 5.664v0c14.295 0 26.163-4.127 35.604-12.38 9.44-8.2 14.16-22.818 14.16-43.857v0c0-14.026-2.347-24.76-7.04-32.205-4.747-7.39-11.086-13.108-19.015-17.154-7.984-4.046-16.696-7.822-26.136-11.328v0c-9.71-3.776-18.125-8.038-25.246-12.785-7.175-4.693-12.704-10.816-16.588-18.368-3.938-7.552-5.907-17.667-5.907-30.344v0c0-18.071 3.992-32.501 11.976-43.29 7.93-10.789 21.2-16.183 39.811-16.184v0c16.183 0 28.995 4.45 38.435 13.352 9.44 8.901 14.16 21.443 14.16 37.626v0 16.183h-6.473v-14.565c0-14.565-4.046-25.893-12.137-33.985-8.092-8.092-19.42-12.137-33.985-12.137v0c-16.723 0-28.456 5.044-35.199 15.131-6.743 10.142-10.115 22.765-10.115 37.869v0c0 12.407 2.104 22.117 6.312 29.13 4.154 7.013 9.683 12.407 16.588 16.183 6.851 3.776 14.187 7.282 22.009 10.519v0c12.947 5.125 23.466 10.115 31.558 14.97 8.092 4.855 14.026 11.113 17.801 18.773 3.776 7.714 5.664 18.584 5.664 32.609v0c0 15.374-2.481 27.646-7.444 36.817-5.017 9.171-11.76 15.779-20.229 19.825-8.523 4.046-18.044 6.069-28.564 6.068z" fill="#273ed4" fill-rule="nonzero" stroke="none" stroke-width="1" stroke-linecap="butt" stroke-linejoin="miter" stroke-miterlimit="10" stroke-dasharray="" stroke-dashoffset="0" font-family="none" font-weight="none" font-size="none" text-anchor="none" style="mix-blend-mode: normal" data-fill-palette-color="tertiary"></path></g></g><g transform="matrix(1,0,0,1,2.842170943040401e-14,38.23834364976331)"><svg viewBox="0 0 395.5199999999999 170.72331270047337" height="170.72331270047337" width="395.5199999999999"><g><svg viewBox="0 0 716.3856624000969 309.22262706327746" height="170.72331270047337" width="395.5199999999999"><g transform="matrix(1,0,0,1,320.86566240009677,98.67379054624122)"><svg viewBox="0 0 395.52000000000004 111.87504597079501" height="111.87504597079501" width="395.52000000000004"><g id="textblocktransform"><svg viewBox="0 0 395.52000000000004 111.87504597079501" height="111.87504597079501" width="395.52000000000004" id="textblock"><g><svg viewBox="0 0 395.52000000000004 111.87504597079501" height="111.87504597079501" width="395.52000000000004"><g transform="matrix(1,0,0,1,0,0)"><svg width="395.52000000000004" viewBox="-4.650000095367432 -39.5 185.87998962402344 53.29999923706055" height="111.87504597079501" data-palette-color="#273ed4"><path d="M10.1 0.6L10.1 0.6Q8.2 0.6 6.68 0.18 5.15-0.25 4.25-1.65 3.35-3.05 3.35-5.9L3.35-5.9 3.35-23.45Q3.35-26.35 4.25-27.73 5.15-29.1 6.73-29.53 8.3-29.95 10.2-29.95L10.2-29.95Q12.15-29.95 13.68-29.5 15.2-29.05 16.1-27.68 17-26.3 17-23.45L17-23.45 17-19.05 16.2-19.05 16.2-23.65Q16.2-26.05 15.43-27.23 14.65-28.4 13.3-28.78 11.95-29.15 10.15-29.15L10.15-29.15Q8.3-29.15 6.95-28.73 5.6-28.3 4.88-27.08 4.15-25.85 4.15-23.35L4.15-23.35 4.15-5.8Q4.15-3.4 4.98-2.2 5.8-1 7.18-0.6 8.55-0.2 10.15-0.2L10.15-0.2Q11.9-0.2 13.28-0.6 14.65-1 15.43-2.2 16.2-3.4 16.2-5.8L16.2-5.8 16.2-9.45 17-9.45 17-5.9Q17-3 16.1-1.63 15.2-0.25 13.65 0.18 12.1 0.6 10.1 0.6ZM24.4 0L23.6 0 23.6-31.5 24.4-31.5 24.4-22.25Q24.95-23.4 26.22-24.28 27.5-25.15 29.85-25.15L29.85-25.15Q31.95-25.15 33.17-24.58 34.4-24 34.95-23.03 35.5-22.05 35.65-20.9 35.8-19.75 35.8-18.6L35.8-18.6 35.8 0 35 0 35-18.15Q35-19.65 34.75-21.08 34.5-22.5 33.42-23.43 32.35-24.35 29.85-24.35L29.85-24.35Q27.1-24.35 25.85-22.98 24.6-21.6 24.4-19.45L24.4-19.45 24.4 0ZM46.85 0.2L46.85 0.2Q45.7 0.2 44.47-0.2 43.25-0.6 42.4-1.83 41.55-3.05 41.55-5.6L41.55-5.6 41.55-7.3Q41.55-8.9 42.27-10.1 43-11.3 44.02-12.13 45.05-12.95 46.02-13.48 47-14 47.45-14.25L47.45-14.25Q49.45-15.35 50.57-16.18 51.7-17 52.2-17.88 52.7-18.75 52.7-20L52.7-20 52.7-20.7Q52.7-22.4 51.97-23.15 51.25-23.9 50.15-24.1 49.05-24.3 47.9-24.3L47.9-24.3Q45.7-24.3 44.62-23.55 43.55-22.8 43.22-21.55 42.9-20.3 42.9-18.75L42.9-18.75 42.9-16.7 42.1-16.7 42.1-18.85Q42.1-21.75 43.25-23.43 44.4-25.1 47.9-25.1L47.9-25.1Q50.6-25.1 51.77-24.4 52.95-23.7 53.22-22.58 53.5-21.45 53.5-20.1L53.5-20.1 53.5 0 52.75 0 52.75-3.65Q52.15-1.9 50.62-0.85 49.1 0.2 46.85 0.2ZM47-0.6L47-0.6Q49.2-0.6 50.42-1.55 51.65-2.5 52.17-4.15 52.7-5.8 52.7-7.85L52.7-7.85 52.7-17.05Q51.9-15.95 50.52-15.13 49.15-14.3 47.7-13.45L47.7-13.45Q46.45-12.75 45.22-11.98 44-11.2 43.17-10 42.35-8.8 42.35-6.9L42.35-6.9 42.35-5.6Q42.35-3.25 43.1-2.2 43.85-1.15 44.95-0.88 46.05-0.6 47-0.6ZM63.59 0L63.59 0Q61.64 0 60.79-1.18 59.94-2.35 59.94-4.65L59.94-4.65 59.94-23.95 58.04-23.95 58.04-24.65 59.94-24.75 60.09-29.6 60.74-29.6 60.74-24.75 66.54-24.75 66.54-23.95 60.74-23.95 60.74-4.4Q60.74-3 61.29-1.88 61.84-0.75 63.54-0.75L63.54-0.75Q64.24-0.75 64.94-0.83 65.64-0.9 66.54-1L66.54-1 66.54-0.2Q66.19-0.15 65.37-0.08 64.54 0 63.59 0ZM83.24 0.45L83.24 0.45Q81.34 0.45 79.89-0.33 78.44-1.1 77.66-3 76.89-4.9 76.89-8.15L76.89-8.15 76.89-8.75 77.69-8.75 77.69-8.15Q77.69-5.15 78.41-3.45 79.14-1.75 80.39-1.05 81.64-0.35 83.24-0.35L83.24-0.35Q85.89-0.35 87.64-1.88 89.39-3.4 89.39-7.3L89.39-7.3Q89.39-9.9 88.51-11.28 87.64-12.65 86.16-13.4 84.69-14.15 82.94-14.8L82.94-14.8Q81.14-15.5 79.81-16.38 78.49-17.25 77.76-18.65 77.04-20.05 77.04-22.4L77.04-22.4Q77.04-25.75 78.51-27.75 79.99-29.75 83.44-29.75L83.44-29.75Q86.44-29.75 88.19-28.1 89.94-26.45 89.94-23.45L89.94-23.45 89.94-21.45 89.14-21.45 89.14-23.25Q89.14-25.95 87.64-27.45 86.14-28.95 83.44-28.95L83.44-28.95Q80.34-28.95 79.09-27.08 77.84-25.2 77.84-22.4L77.84-22.4Q77.84-20.1 78.61-18.8 79.39-17.5 80.66-16.8 81.94-16.1 83.39-15.5L83.39-15.5Q85.79-14.55 87.29-13.65 88.79-12.75 89.49-11.33 90.19-9.9 90.19-7.3L90.19-7.3Q90.19-4.45 89.26-2.75 88.34-1.05 86.76-0.3 85.19 0.45 83.24 0.45ZM96.39 5.8L95.59 5.8 95.59-24.75 96.29-24.75 96.39-22.25Q96.64-23.25 97.81-24.2 98.99-25.15 101.59-25.15L101.59-25.15Q103.69-25.15 104.91-24.58 106.14-24 106.69-23.03 107.24-22.05 107.39-20.9 107.54-19.75 107.54-18.6L107.54-18.6 107.54-6.2Q107.54-4.65 107.24-3.15 106.94-1.65 105.69-0.65 104.44 0.35 101.59 0.35L101.59 0.35Q99.09 0.35 97.89-0.38 96.69-1.1 96.39-1.9L96.39-1.9 96.39 5.8ZM101.59-0.45L101.59-0.45Q103.54-0.45 104.59-1 105.64-1.55 106.09-2.43 106.54-3.3 106.64-4.33 106.74-5.35 106.74-6.35L106.74-6.35 106.74-18.45Q106.74-19.95 106.51-21.3 106.29-22.65 105.24-23.5 104.19-24.35 101.59-24.35L101.59-24.35Q99.19-24.35 98.09-23.48 96.99-22.6 96.69-21.2 96.39-19.8 96.39-18.15L96.39-18.15 96.39-6.35Q96.39-5.35 96.49-4.33 96.59-3.3 97.04-2.43 97.49-1.55 98.56-1 99.64-0.45 101.59-0.45ZM114.68 0L113.88 0 113.88-31.5 114.68-31.5 114.68-22.25Q115.23-23.4 116.51-24.28 117.78-25.15 120.13-25.15L120.13-25.15Q122.23-25.15 123.46-24.58 124.68-24 125.23-23.03 125.78-22.05 125.93-20.9 126.08-19.75 126.08-18.6L126.08-18.6 126.08 0 125.28 0 125.28-18.15Q125.28-19.65 125.03-21.08 124.78-22.5 123.71-23.43 122.63-24.35 120.13-24.35L120.13-24.35Q117.38-24.35 116.13-22.98 114.88-21.6 114.68-19.45L114.68-19.45 114.68 0ZM138.08 0.35L138.08 0.35Q135.93 0.35 134.71-0.23 133.48-0.8 132.93-1.75 132.38-2.7 132.23-3.88 132.08-5.05 132.08-6.2L132.08-6.2 132.08-18.6Q132.08-20.15 132.43-21.65 132.78-23.15 134.06-24.15 135.33-25.15 138.08-25.15L138.08-25.15Q140.88-25.15 142.13-24.2 143.38-23.25 143.71-21.75 144.03-20.25 144.03-18.6L144.03-18.6 144.03-13.15 132.88-13.15 132.88-6.35Q132.88-4.9 133.16-3.53 133.43-2.15 134.53-1.3 135.63-0.45 138.08-0.45L138.08-0.45Q140.53-0.45 141.61-1.3 142.68-2.15 142.96-3.5 143.23-4.85 143.23-6.35L143.23-6.35 143.23-8.35 144.03-8.35 144.03-6.2Q144.03-4.65 143.73-3.15 143.43-1.65 142.18-0.65 140.93 0.35 138.08 0.35ZM132.88-18.15L132.88-13.95 143.23-13.95 143.23-18.15Q143.23-19.9 142.98-21.3 142.73-22.7 141.66-23.53 140.58-24.35 138.08-24.35L138.08-24.35Q135.88-24.35 134.76-23.58 133.63-22.8 133.26-21.43 132.88-20.05 132.88-18.15L132.88-18.15ZM151.08 0L150.28 0 150.28-24.75 150.98-24.75 151.08-22.25Q151.63-23.4 152.9-24.28 154.18-25.15 156.53-25.15L156.53-25.15Q157.58-25.15 158.38-25L158.38-25 158.38-24.2Q157.58-24.35 156.53-24.35L156.53-24.35Q153.78-24.35 152.43-22.9 151.08-21.45 151.08-19.45L151.08-19.45 151.08 0ZM167.28 0.35L167.28 0.35Q165.13 0.35 163.9-0.23 162.68-0.8 162.13-1.75 161.58-2.7 161.43-3.88 161.28-5.05 161.28-6.2L161.28-6.2 161.28-18.6Q161.28-20.15 161.63-21.65 161.98-23.15 163.25-24.15 164.53-25.15 167.28-25.15L167.28-25.15Q170.08-25.15 171.33-24.2 172.58-23.25 172.9-21.75 173.23-20.25 173.23-18.6L173.23-18.6 173.23-13.15 162.08-13.15 162.08-6.35Q162.08-4.9 162.35-3.53 162.63-2.15 163.73-1.3 164.83-0.45 167.28-0.45L167.28-0.45Q169.73-0.45 170.8-1.3 171.88-2.15 172.15-3.5 172.43-4.85 172.43-6.35L172.43-6.35 172.43-8.35 173.23-8.35 173.23-6.2Q173.23-4.65 172.93-3.15 172.63-1.65 171.38-0.65 170.13 0.35 167.28 0.35ZM162.08-18.15L162.08-13.95 172.43-13.95 172.43-18.15Q172.43-19.9 172.18-21.3 171.93-22.7 170.85-23.53 169.78-24.35 167.28-24.35L167.28-24.35Q165.08-24.35 163.95-23.58 162.83-22.8 162.45-21.43 162.08-20.05 162.08-18.15L162.08-18.15Z" opacity="1" transform="matrix(1,0,0,1,0,0)" fill="#273ed4" class="wordmark-text-0" data-fill-palette-color="primary" id="text-0"></path></svg></g></svg></g></svg></g></svg></g><g><svg viewBox="0 0 309.22260347146505 309.22262706327746" height="309.22262706327746" width="309.22260347146505"><g><svg xmlns="http://www.w3.org/2000/svg" xmlns:xlink="http://www.w3.org/1999/xlink" version="1.1" x="0" y="0" viewBox="0 -0.0000057220458984375 100 100.00000762939453" style="enable-background:new 0 0 100 100;" xml:space="preserve" height="309.22262706327746" width="309.22260347146505" class="icon-icon-0" data-fill-palette-color="accent" id="icon-0"><g fill="#caa9ff" data-fill-palette-color="accent"><path d="M74.988 37.5C74.988 51.307 63.806 62.5 50 62.5 50 55.604 44.396 50 37.5 50H24.988C12.5 50 0 42.969 0 25 0 6.641 12.5 0 24.988 0H50C62.5 0 74.988 7.745 74.988 25z" fill="#caa9ff" data-fill-palette-color="accent"></path></g><path d="M37.5 37.5" fill="#caa9ff" data-fill-palette-color="accent"></path><path d="M37.5 37.5" fill="#caa9ff" data-fill-palette-color="accent"></path><g fill="#caa9ff" data-fill-palette-color="accent"><g fill="#caa9ff" data-fill-palette-color="accent"><path d="M81.189 38.165C80.822 55.078 66.992 68.75 50 68.75H43.75V62.5A6.26 6.26 0 0 0 37.5 56.25H25.623A31.3 31.3 0 0 0 24.988 62.5V75C24.988 88.807 36.193 100 50 100 50 93.091 55.604 87.5 62.5 87.5H74.988C87.5 87.5 100 80.469 100 62.5 100 47.211 91.297 40.125 81.189 38.165" fill="#caa9ff" data-fill-palette-color="accent"></path></g></g></svg></g></svg></g></svg></g></svg></g></svg></g><defs></defs></svg><rect width="395.52" height="247.2" fill="none" stroke="none" visibility="hidden"></rect></g></svg></g></g></g></g><rect width="208.86552103718202" height="55.22512154476516" x="305.14294887475535" y="173.38742967221134" rx="2.5" ry="2.5" fill="transparent" class="logo-element-hover-target"></rect><rect width="182.72322957436404" height="182.7233060176125" x="117.2400165117416" y="109.63834699119376" rx="2.5" ry="2.5" fill="transparent" class="logo-element-hover-target"></rect></svg>